# xmcd
#
# Track frame offsets: 
#        150
#        12529
#        23672
#        35217
#        47807
#        56730
#        71431
#        81630
#        93034
#        107153
#        120053
#        130802
#        141494
#        154836
#        167676
#        179122
#        193074
#        207011
#        217896
#        229387
#
# Disc length: 3223 seconds
#
# Revision: 0
# Processed by: cddbd v1.5.2PL0 Copyright (c) Steve Scherf et al.
# Submitted via: ExactAudioCopy v1.3
#
DISCID=220c9514
DTITLE=Various Artist - Harmonica Blues - CD1
DYEAR=2018
DGENRE=Blues
TTITLE0=Juke - Little Walter
TTITLE1=Jelly Roll King - Frank Frost with The Night Hawks
TTITLE2=Poor Boy - Howlin' Wolf
TTITLE3=Big Boss Man - Jimmy Reed
TTITLE4=Too Close Blues - Lightnin' Slim
TTITLE5=Goin' Down Slow - Sonny Terry
TTITLE6=Buzz Me Babe - Slim Harpo
TTITLE7=Train Done Gone - Eddie 'Blues Man' Kirkland
TTITLE8=Keys To The Highway - Big Bill Broonzy, Sonny Terry and Brownie 
TTITLE8=McGhee
TTITLE9=Baby You're So Kind - Frank Frost with The Night Hawks
TTITLE10=I Love You, I Need You - Lazy Lester
TTITLE11=Red Top - Jerry McCain
TTITLE12=Jailhouse Blues - Sleepy John Estes
TTITLE13=Keep It To Yourself - Sonny Boy Williamson
TTITLE14=Just A Dream (On My Mind) - Muddy Waters
TTITLE15=Love My Baby - Shakey Jake
TTITLE16=Blueberry Hill - Buster Brown
TTITLE17=Just Your Fool - Little Walter
TTITLE18=Rainin' In mY Heart - Slim Harpo
TTITLE19=Whoopin' The Blues - Sonny Terry
EXTD=
EXTT0=
EXTT1=
EXTT2=
EXTT3=
EXTT4=
EXTT5=
EXTT6=
EXTT7=
EXTT8=
EXTT9=
EXTT10=
EXTT11=
EXTT12=
EXTT13=
EXTT14=
EXTT15=
EXTT16=
EXTT17=
EXTT18=
EXTT19=
PLAYORDER=
